PathFileType	4	(X/Y/Z)	./motion_analysis/DM_ngait_tm_ss1_new.trc
DataRate	CameraRate	NumFrames	NumMarkers	Units	OrigDataRate	OrigDataStartFrame	OrigNumFrames
120	120	4	68	mm	120	1572	2097
Frame#	Time	Sternum			Neck			R_Shoulder			L_Shoulder			Xiphoid			Thoracic			R_Asis			L_Asis			R_Psis			L_Psis			Lumbar			R_Elbow			R_ElbowMedial			R_ShoulderAnterior			R_ShoulderPosterior			R_Wrist			R_Radius			R_Ulna			L_Elbow			L_ElbowMedial			L_ShoulderAnterior			L_ShoulderPosterior			L_Wrist			L_Ulna			L_Radius			L_Thigh_Superior			L_Thigh_Inferior			L_Thigh_Lateral			L_Knee_Lateral			L_Knee_Medial			L_Patella			L_Shank_Superior			L_Shank_Inferior			L_Shank_Lateral			L_Ankle_Lateral			L_Ankle_Medial			R_Thigh_Superior			R_Thigh_Inferior			R_Thigh_Lateral			R_Knee_Lateral			R_Knee_Medial			R_Patella			R_Shank_Superior			R_Shank_Inferior			R_Shank_Lateral			R_Ankle_Lateral			RankleMedial			R_Heel			R_Toe			R_Midfoot_Medial			R_Midfoot_Lateral			R_Hindfoot			R_Midfoot_Superior			R_ToeMedial			R_ToeLateral			L_Heel			L_Toe			L_Midfoot_Medial			L_Midfoot_Lateral			L_Hindfoot			L_Midfoot_Superior			L_ToeMedial			L_ToeLateral			Oglobal			Sacral			Xglobal			Yglobal			Zglobal			
		X1	Y1	Z1	X2	Y2	Z2	X3	Y3	Z3	X4	Y4	Z4	X5	Y5	Z5	X6	Y6	Z6	X7	Y7	Z7	X8	Y8	Z8	X9	Y9	Z9	X10	Y10	Z10	X11	Y11	Z11	X12	Y12	Z12	X13	Y13	Z13	X14	Y14	Z14	X15	Y15	Z15	X16	Y16	Z16	X17	Y17	Z17	X18	Y18	Z18	X19	Y19	Z19	X20	Y20	Z20	X21	Y21	Z21	X22	Y22	Z22	X23	Y23	Z23	X24	Y24	Z24	X25	Y25	Z25	X26	Y26	Z26	X27	Y27	Z27	X28	Y28	Z28	X29	Y29	Z29	X30	Y30	Z30	X31	Y31	Z31	X32	Y32	Z32	X33	Y33	Z33	X34	Y34	Z34	X35	Y35	Z35	X36	Y36	Z36	X37	Y37	Z37	X38	Y38	Z38	X39	Y39	Z39	X40	Y40	Z40	X41	Y41	Z41	X42	Y42	Z42	X43	Y43	Z43	X44	Y44	Z44	X45	Y45	Z45	X46	Y46	Z46	X47	Y47	Z47	X48	Y48	Z48	X49	Y49	Z49	X50	Y50	Z50	X51	Y51	Z51	X52	Y52	Z52	X53	Y53	Z53	X54	Y54	Z54	X55	Y55	Z55	X56	Y56	Z56	X57	Y57	Z57	X58	Y58	Z58	X59	Y59	Z59	X60	Y60	Z60	X61	Y61	Z61	X62	Y62	Z62	X63	Y63	Z63	X64	Y64	Z64	X65	Y65	Z65	X66	Y66	Z66	X67	Y67	Z67	X68	Y68	Z68	

1573	13.108333	-898.063	1384.15	455.706	-749.575	1474.07	419.145	-875.865	1411.43	281.255	-786.8920000000001	1439.38	613.186	-907.183	1215.79	465.484	-644.212	1293.73	430.74	-817.415	997.204	320.912	-795.7910000000001	990.432	599.157	-611.135	1047.55	415.542	-608.748	1047.48	493.938	-612.696	1097.75	453.374	-992.178	1111.23	234.552	-0	0	0	-0	0	0	-0	0	0	-1194.26	963.537	348.853	-1166.57	959.982	386.685	-1171.63	937.7	314.861	-704.168	1110.29	715.218	-0	0	0	-0	0	0	-0	0	0	-749.647	846.446	723.319	-703.2910000000001	857.595	730.296	-756.173	860.298	678.369	-777.3579999999999	836.816	639.573	-901.599	647.018	610.343	-907.777	745.8579999999999	580.163	-0	0	0	-0	0	0	-968.655	562.758	571.667	-886.29	493.984	627.157	-824.244	228.282	628.046	-897.077	346.109	564.005	-0	0	0	-0	0	0	-715.715	814.872	291.911	-713.427	599.341	337.539	-800.047	656.331	383.537	-0	0	0	-0	0	0	-777.975	504.859	414.188	-0	0	0	-596.898	209.582	344.633	-683.6799999999999	319.533	414.237	-0	0	0	-0	0	0	-485.417	84.2073	395.083	-783.5549999999999	66.0234	397.144	-705.361	43.6618	447.97	-695.36	42.4868	331.132	-584.439	45.0387	342.297	-650.198	133.917	393.4	-749.249	54.8244	441.32	-743.736	54.7763	347.511	-746.273	112.264	569.9	-1039.11	83.11799999999999	612.059	-967.145	66.5949	552.652	-939.744	69.82210000000001	663.759	-833.465	71.8843	640.299	-912.303	157.381	597.121	-1006.12	65.8095	564.12	-994.234	68.70059999999999	660.148	-0	0	0	-609.941	1047.52	454.74	-200	0	0	-0	0	200	-0	200	0	
1574	13.116667	-897.472	1382.96	456.486	-749.207	1473.15	419.978	-875.25	1410.51	281.914	-785.984	1438.09	613.96	-906.384	1214.55	465.824	-643.588	1292.91	431.502	-816.018	996.074	320.991	-794.946	989.071	599.4160000000001	-610.145	1047.02	416.18	-607.936	1046.85	494.532	-611.917	1097.17	454.064	-990.963	1110.08	234.453	-0	0	0	-0	0	0	-0	0	0	-1194.26	963.7619999999999	348.418	-1166.71	960.471	386.445	-1171.51	937.6900000000001	314.747	-700.611	1109.59	715.48	-0	0	0	-0	0	0	-0	0	0	-743.414	845.36	724.768	-697.122	856.938	730.9880000000001	-750.6849999999999	859.099	679.784	-776.679	835.927	640.338	-901.1609999999999	646.713	608.3920000000001	-906.883	745.567	578.28	-0	0	0	-0	0	0	-967.898	563.4880000000001	569.899	-888.72	492.712	626.654	-841.307	223.975	629.452	-907.3200000000001	345.121	564.2859999999999	-0	0	0	-0	0	0	-712.639	814.379	292.186	-707.508	598.948	337.61	-794.864	654.798	383.712	-0	0	0	-0	0	0	-770.921	503.535	414.038	-0	0	0	-587.6900000000001	209.767	344.763	-675.192	319.103	414.57	-0	0	0	-0	0	0	-475.492	84.5548	395.171	-773.6420000000001	66.1002	396.82	-695.345	43.5034	448.045	-685.34	42.3753	331.207	-574.405	45.1238	342.342	-640.362	133.887	393.496	-739.2430000000001	54.7148	441.335	-733.652	54.791	347.528	-769.355	103.688	572.481	-1063.61	89.8715	612.804	-992.169	69.3377	553.996	-965.342	71.71680000000001	665.265	-859.079	68.2264	642.527	-933.061	157.426	598.401	-1031.22	70.621	565.213	-1019.85	73.3608	661.225	-0	0	0	-609.04	1046.93	455.356	-200	0	0	-0	0	200	-0	200	0	
1575	13.125	-896.893	1381.68	457.351	-748.856	1472.1	420.925	-874.612	1409.46	282.702	-785.201	1436.67	614.888	-905.774	1213.17	466.346	-643.0650000000001	1291.95	432.311	-814.693	995.052	321.05	-794.241	987.343	599.6900000000001	-609.223	1046.3	416.933	-607.254	1046.02	495.27	-611.21	1096.41	454.974	-989.701	1108.76	234.296	-0	0	0	-0	0	0	-0	0	0	-1194.21	963.891	348.003	-1166.79	961.136	386.031	-1171.34	937.542	314.611	-697.258	1108.75	715.801	-0	0	0	-0	0	0	-0	0	0	-737.401	844.122	726.107	-691.174	856.136	731.716	-745.367	857.7569999999999	681.083	-775.737	834.573	640.951	-900.326	645.949	606.606	-905.7670000000001	744.794	576.597	-0	0	0	-0	0	0	-966.582	563.5890000000001	568.272	-890.634	491.147	626.295	-858.241	220.119	630.769	-917.199	344.281	564.503	-0	0	0	-0	0	0	-709.602	813.836	292.352	-701.669	598.391	337.749	-789.766	653.187	383.809	-0	0	0	-0	0	0	-763.975	502.172	413.805	-0	0	0	-578.4640000000001	209.957	344.869	-666.928	318.678	414.563	-0	0	0	-0	0	0	-465.577	84.8997	395.279	-763.663	65.9521	396.84	-685.352	43.3464	448.085	-675.299	42.1927	331.252	-564.398	45.2366	342.442	-630.542	133.831	393.519	-728.9400000000001	54.2576	441.407	-723.6660000000001	54.7475	347.602	-792.7	95.7496	575.273	-1087.6	97.642	613.05	-1016.83	73.17740000000001	554.702	-991	74.59910000000001	666.223	-884.7619999999999	65.43389999999999	644.471	-953.606	158.209	599.373	-1056	76.5932	565.88	-1045.23	79.282	662.098	-0	0	0	-608.239	1046.16	456.102	-200	0	0	-0	0	200	-0	200	0	
1576	13.133333	-896.412	1380.26	458.208	-748.581	1470.88	421.92	-873.951	1408.23	283.452	-784.548	1435.03	615.741	-905.116	1211.56	466.871	-642.598	1290.85	433.441	-813.2430000000001	993.9	321.005	-793.818	985.578	600.025	-608.325	1045.46	417.887	-606.739	1045.04	496.221	-610.557	1095.51	456.112	-988.36	1107.37	234.134	-0	0	0	-0	0	0	-0	0	0	-1194.12	963.928	347.658	-1166.83	961.678	385.515	-1171.12	937.298	314.426	-694.1900000000001	1107.73	716.181	-0	0	0	-0	0	0	-0	0	0	-731.676	842.686	727.329	-685.4829999999999	855.222	732.414	-740.198	856.26	682.361	-774.894	833.0700000000001	641.865	-899.111	644.8200000000001	604.991	-904.426	743.552	574.949	-0	0	0	-0	0	0	-964.799	563.0170000000001	566.641	-891.97	489.342	626.095	-875.211	216.837	632.126	-926.5940000000001	343.688	564.691	-0	0	0	-0	0	0	-706.5650000000001	813.16	292.648	-695.933	597.7910000000001	337.878	-784.853	651.677	383.749	-0	0	0	-0	0	0	-757.206	500.878	413.775	-0	0	0	-569.263	210.13	345.011	-658.616	318.212	414.571	-0	0	0	-0	0	0	-455.616	85.2868	395.321	-753.59	65.8631	396.877	-675.274	43.2316	448.218	-665.252	42.0317	331.382	-554.3579999999999	45.3128	342.508	-620.722	133.823	393.581	-718.936	54.0538	441.37	-713.643	54.6776	347.655	-816.347	88.8526	577.674	-1111.02	106.563	612.894	-1041.21	78.33240000000001	555.458	-1016.17	78.71680000000001	667.168	-910.529	63.7246	646.341	-973.857	159.989	600.376	-1080.17	83.61799999999999	566.026	-1070.1	86.21980000000001	662.299	-0	0	0	-607.532	1045.25	457.054	-200	0	0	-0	0	200	-0	200	0	
